<svg xmlns="http://www.w3.org/2000/svg" version="1.1" viewBox="-5.0 -10.0 110.0 135.0">
 <path d="m36.867 28.141c-0.87891 1.8477-1.3828 3.9062-1.3828 6.082 0 2.1797 0.50781 4.2383 1.3867 6.0859 0.035156 0.078125 0.078125 0.15625 0.11328 0.23828 0.097656 0.19922 0.19531 0.39844 0.30078 0.58984 1.3672 2.582 3.582 4.7969 6.7031 6.1016 0.20312 0.089844 0.41406 0.17188 0.62109 0.25391 0.10547 0.039062 0.21094 0.078124 0.31641 0.11719 1.4844 0.53516 3.0742 0.83984 4.7422 0.85547 0.027343 0 0.050781 0.003906 0.078125 0.007812h0.027344 0.007812 0.003906c0.007813 0 0.019532-0.003906 0.027344-0.003906 1.6719-0.007812 3.2656-0.31641 4.7578-0.85547 0.11719-0.039062 0.22656-0.082031 0.34375-0.125 0.19531-0.078125 0.39063-0.15234 0.58203-0.23828 3.125-1.3047 5.3398-3.5312 6.707-6.125 0.09375-0.17188 0.17969-0.34766 0.26562-0.52344 0.046875-0.10156 0.10156-0.19922 0.14453-0.30469 0.875-1.8438 1.3789-3.8984 1.3789-6.0703 0-2.1758-0.50391-4.2344-1.3828-6.082-0.039063-0.089843-0.085937-0.17578-0.12891-0.26562-0.09375-0.1875-0.18359-0.37891-0.28906-0.5625-1.3672-2.5859-3.5859-4.8047-6.7148-6.1094-0.19922-0.085937-0.40234-0.16797-0.60547-0.24609-0.10938-0.039063-0.21875-0.082032-0.33203-0.12109-1.4805-0.53125-3.0703-0.83984-4.7344-0.85156-0.027344 0-0.050782-0.003906-0.082032-0.007812h-0.027344-0.007812c-0.007812 0-0.019531 0.003906-0.027344 0.003906-1.6719 0.007813-3.2656 0.31641-4.7539 0.85547-0.11719 0.039062-0.23047 0.085937-0.34375 0.125-0.19531 0.078125-0.39062 0.15234-0.57812 0.23828-3.1211 1.3047-5.3359 3.5273-6.7031 6.1172-0.10156 0.18359-0.19141 0.375-0.28906 0.5625-0.039063 0.085938-0.085938 0.17188-0.125 0.25781zm8.2852-4.1914c1.3125-0.54688 2.8242-0.89453 4.5625-0.96875 1.75 0.074219 3.2695 0.42578 4.5898 0.97266 2.5078 1.1172 4.5312 3.125 5.6719 5.6211 0.62109 1.4766 0.92969 3.0664 0.92969 4.6484 0 1.5781-0.30859 3.168-0.92578 4.6445-1.1367 2.5-3.1562 4.5117-5.6523 5.6328-1.3164 0.54688-2.8281 0.89844-4.5664 0.96875-1.75-0.074219-3.2734-0.42578-4.5977-0.97266-2.5039-1.1172-4.5195-3.1211-5.6602-5.6094-0.625-1.4766-0.93359-3.0742-0.93359-4.6602 0-1.582 0.30859-3.1758 0.92969-4.6523 1.1406-2.5 3.1602-4.5078 5.6523-5.625z"/>
 <path d="m78.398 47.816c5.9375 0 10.766-4.8281 10.766-10.766s-4.8281-10.766-10.824-10.766c-7.3203 0.28906-10.656 5.7852-10.656 10.766-0.003906 4.9805 3.332 10.477 10.715 10.766zm0-18.531c4.2812 0 7.7656 3.4844 7.7656 7.7656s-3.4844 7.7656-7.707 7.7695c-5.375-0.21484-7.7773-4.0547-7.7773-7.7695 0-3.7148 2.4062-7.5547 7.7188-7.7656z"/>
 <path d="m96.969 56.188c-0.019531-0.066406-0.046875-0.13281-0.074219-0.19531-1.7227-3.7188-4.4453-6.2422-8.0938-7.5-0.035156-0.011719-0.074219-0.023438-0.11328-0.03125l-0.21875-0.074219c-0.29688-0.10156-0.63672-0.21484-1.0312-0.27734-0.066406-0.011719-0.13281-0.015625-0.19922-0.015625-0.68359-0.035156-1.2812 0.27344-2.4375 0.80078-1.625 0.74219-4.0859 1.8594-6.4062 1.8594-2.3203 0-4.7812-1.1172-6.4062-1.8594-1.1562-0.52734-1.7539-0.83594-2.4375-0.80078-0.070312 0-0.13672 0.007812-0.20312 0.019531-0.38281 0.0625-0.72656 0.17578-1.0234 0.27734l-0.31641 0.10156c-0.57422 0.19141-1.1133 0.43359-1.6328 0.69531-0.8125-0.42188-1.6562-0.80469-2.5547-1.1133l-0.37891-0.12109c-0.39453-0.13281-0.84375-0.27734-1.3359-0.35938-0.070313-0.011719-0.14062-0.019531-0.21094-0.019531-0.74609-0.023438-1.5859 0.36328-3.0938 1.0469-2.2812 1.0391-5.7305 2.6055-9.0508 2.6094-3.3203 0-6.7695-1.5703-9.0547-2.6094-1.5117-0.6875-2.3398-1.0703-3.0977-1.0469-0.070312 0-0.14062 0.007812-0.21094 0.019531-0.49219 0.082031-0.9375 0.23047-1.3359 0.35938l-0.42969 0.13672c-0.88281 0.30078-1.7109 0.67969-2.5117 1.0938-0.52344-0.26172-1.0664-0.50391-1.668-0.70312l-0.27734-0.089844c-0.30078-0.10156-0.64062-0.21484-1.0234-0.27734-0.066406-0.011719-0.13672-0.015625-0.20312-0.019531-0.65625-0.023438-1.2812 0.27344-2.4336 0.80078-1.625 0.74219-4.0859 1.8594-6.4062 1.8594-2.3242 0-4.7812-1.1172-6.4062-1.8594-1.1562-0.52734-1.7852-0.83203-2.4375-0.80078-0.066406 0-0.13281 0.007812-0.19922 0.015625-0.39453 0.0625-0.73438 0.17578-1.0312 0.27734l-0.32813 0.10938c-1.9648 0.67969-3.6719 1.7305-5.0781 3.1211-1.2344 1.2227-2.25 2.6953-3.0273 4.3789-0.027344 0.0625-0.050782 0.125-0.070313 0.1875-2.2891 5.0664-1.9492 10.602-1.8984 11.277 0.039062 1.6406 1.4492 3.2695 10.867 4.1328 3.1641 0.28125 6.3945 0.42578 9.5938 0.42578 0.33594 0 0.67578-0.011719 1.0117-0.015625 0.007812 0.84766 0.046875 1.4258 0.0625 1.6133 0.042969 1.9062 1.8711 3.9922 14.434 5.1484 4.3633 0.39062 8.7539 0.58594 13.148 0.58594 4.3984 0 8.793-0.19531 13.16-0.58594 12.562-1.1523 14.387-3.2422 14.43-5.1484 0.015625-0.19141 0.054687-0.76953 0.0625-1.6133 0.33594 0.003906 0.67578 0.015625 1.0117 0.015625 3.1992 0 6.4258-0.14453 9.5977-0.42578 2.8828-0.26562 5.3203-0.64844 7.0352-1.1016 1.0352-0.27344 3.7578-0.99609 3.8242-3.0234 0.050781-0.65234 0.39844-6.1992-1.8906-11.281zm-72.227 2.0977c-1.7188 3.7812-2.3477 7.7539-2.5547 10.719-3.5156 0.0625-6.9922-0.089844-10.43-0.39844-5.2109-0.47656-7.5078-1.2031-8.1562-1.6055-0.054687-1.125-0.14453-5.7188 1.7227-9.7383 0.027343-0.058594 0.050781-0.11719 0.070312-0.17578 0.61328-1.2891 1.3984-2.4102 2.3359-3.3398 1.082-1.0742 2.4102-1.8867 3.8906-2.3984 0.12109-0.039062 0.23828-0.078125 0.35938-0.11719 0.10938-0.039063 0.21875-0.074219 0.31641-0.10156 0.26562 0.097656 0.74609 0.31641 1.1484 0.5 1.8633 0.84766 4.6758 2.1289 7.6484 2.1289s5.7891-1.2812 7.6523-2.1289c0.39844-0.17969 0.87891-0.39844 1.1484-0.5 0.058594 0.015625 0.11328 0.039063 0.17188 0.054688-2.1641 1.7773-3.9297 4.0742-5.2461 6.918-0.035156 0.058594-0.058593 0.11719-0.078124 0.18359zm49.598 15.031c-0.62109 0.57422-3.7188 1.7266-11.715 2.4648-8.5508 0.76562-17.223 0.76562-25.766 0-8-0.73438-11.098-1.8906-11.719-2.4609-0.0625-0.92187-0.41016-7.8828 2.4023-13.941 0.027343-0.058594 0.050781-0.11719 0.070312-0.17578 1.9492-4.1172 4.9688-6.8984 8.9336-8.2578 0.14844-0.046874 0.29688-0.09375 0.44531-0.14062 0.23828-0.078126 0.46484-0.15234 0.67187-0.20313 0.35547 0.10938 1.1406 0.46484 1.7812 0.75781 2.5156 1.1445 6.3203 2.875 10.293 2.875 3.9727-0.003906 7.7734-1.7344 10.293-2.875 0.64453-0.29297 1.4258-0.64844 1.7812-0.75781 0.21094 0.050782 0.4375 0.125 0.67969 0.20703 0.14844 0.046875 0.29297 0.097656 0.39453 0.125 4.0078 1.375 7.0312 4.1562 8.9805 8.2695 0.019531 0.0625 0.042968 0.12109 0.070312 0.17969 2.8125 6.0508 2.4609 13.012 2.4023 13.934zm21.543-6.3242c-0.20703 0.125-0.67187 0.34766-1.6172 0.59766-1.5586 0.41406-3.8203 0.76562-6.5391 1.0156-3.4453 0.30859-6.9258 0.46094-10.434 0.39844-0.21094-2.9648-0.83984-6.9375-2.5547-10.715-0.019531-0.0625-0.046875-0.12891-0.074219-0.19141-1.3164-2.8398-3.0781-5.1367-5.25-6.9141 0.058594-0.019532 0.11719-0.039063 0.17578-0.058594 0.26562 0.097656 0.75 0.31641 1.1484 0.5 1.8633 0.84766 4.6758 2.125 7.6484 2.125 2.9727 0 5.7891-1.2812 7.6484-2.1289 0.39844-0.17969 0.87891-0.39844 1.1484-0.5 0.097656 0.03125 0.20703 0.066406 0.31641 0.10156 0.12109 0.039063 0.23828 0.078125 0.35938 0.11719 0.011719 0.003906 0.023437 0.007812 0.039063 0.011718 2.75 0.96875 4.832 2.8945 6.1875 5.7227 0.019531 0.0625 0.042968 0.125 0.070312 0.18359 1.8633 4.0117 1.7812 8.5898 1.7266 9.7344z"/>
 <path d="m21.094 47.816c5.9375 0 10.766-4.8281 10.766-10.766s-4.8281-10.766-10.824-10.766c-7.3242 0.28906-10.66 5.7852-10.66 10.766 0.003906 4.9805 3.3359 10.477 10.719 10.766zm0-18.531c4.2812 0 7.7656 3.4844 7.7656 7.7656s-3.4844 7.7656-7.707 7.7695c-5.375-0.21484-7.7773-4.0547-7.7773-7.7695 0.003906-3.7148 2.4062-7.5547 7.7188-7.7656z"/>
<text x="0.0" y="117.5" font-size="5.0" font-weight="bold" font-family="Arbeit Regular, Helvetica, Arial-Unicode, Arial, Sans-serif" fill="#000000">Created by Carme Parramon</text><text x="0.0" y="122.5" font-size="5.0" font-weight="bold" font-family="Arbeit Regular, Helvetica, Arial-Unicode, Arial, Sans-serif" fill="#000000">from Noun Project</text></svg>