<svg xmlns="http://www.w3.org/2000/svg" version="1.1" viewBox="-5.0 -10.0 110.0 135.0">
 <g>
  <path d="m25.73 29.141v15.016h-14.77c-1.7266 0-3.125 1.3984-3.125 3.125v43.344c0 1.7266 1.3984 3.125 3.125 3.125h78.074c1.7266 0 3.125-1.3984 3.125-3.125l0.003906-43.344c0-1.7266-1.3984-3.125-3.125-3.125h-14.766l-0.003907-15.016c0-1.7266-1.3984-3.125-3.125-3.125h-7.6211l3.3711-4.1641c0.66797-0.82422 0.87109-1.9297 0.54297-2.9336-0.32812-1.0078-1.1406-1.7773-2.1641-2.0547l-8.0938-2.168-4.5625-7.0273c-1.1523-1.7695-4.0898-1.7695-5.2422 0l-4.5625 7.0273-8.0938 2.168c-1.0234 0.27344-1.8359 1.0469-2.1641 2.0547-0.32813 1.0039-0.12109 2.1094 0.54297 2.9336l3.3711 4.1641h-7.6133c-1.7266 0-3.125 1.3984-3.125 3.125zm18.258-3.7812-3-3.7031 4.6055-1.2344c0.74609-0.19922 1.3906-0.66797 1.8125-1.3164l2.5938-3.9922 2.5938 3.9961c0.42188 0.64844 1.0664 1.1172 1.8125 1.3164l4.6055 1.2344-3 3.7031c-0.48828 0.60156-0.73438 1.3594-0.69141 2.1328l0.25 4.7617-4.4492-1.7109c-0.35938-0.14062-0.74219-0.21094-1.1211-0.21094s-0.76172 0.070312-1.1211 0.20703l-4.4492 1.7109 0.25-4.7617c0.042968-0.76953-0.20313-1.5312-0.69141-2.1328zm41.926 62.141h-11.641l-0.003907-37.094h11.641zm-35.914-8.6602c-1.7266 0-3.125 1.3984-3.125 3.125v5.5352h-14.895v-55.234h6.1914l-0.23438 4.4648c-0.054688 1.0547 0.42578 2.0703 1.2852 2.6914s1.9688 0.77344 2.957 0.39062l7.8203-3.0039 7.8242 3.0039c0.36328 0.14062 0.74219 0.20703 1.1211 0.20703 0.64844 0 1.2969-0.20312 1.8359-0.59766 0.85547-0.62109 1.3398-1.6367 1.2852-2.6914l-0.23438-4.4648h6.1914v15.016l-0.003907 40.219h-14.895v-5.5352c0-1.7266-1.3984-3.125-3.125-3.125zm-35.914-28.434h11.641l0.003907 37.094h-11.645z"/>
  <path d="m54.879 56.5h3.2539c1.7266 0 3.125-1.3984 3.125-3.125s-1.3984-3.125-3.125-3.125h-3.2539c-1.7266 0-3.125 1.3984-3.125 3.125s1.3984 3.125 3.125 3.125z"/>
  <path d="m45.121 50.25h-3.2539c-1.7266 0-3.125 1.3984-3.125 3.125s1.3984 3.125 3.125 3.125h3.2539c1.7266 0 3.125-1.3984 3.125-3.125s-1.3984-3.125-3.125-3.125z"/>
  <path d="m58.133 69.512c1.7266 0 3.125-1.3984 3.125-3.125 0-1.7266-1.3984-3.125-3.125-3.125h-3.2539c-1.7266 0-3.125 1.3984-3.125 3.125 0 1.7266 1.3984 3.125 3.125 3.125z"/>
  <path d="m45.121 63.262h-3.2539c-1.7266 0-3.125 1.3984-3.125 3.125 0 1.7266 1.3984 3.125 3.125 3.125h3.2539c1.7266 0 3.125-1.3984 3.125-3.125 0-1.7266-1.3984-3.125-3.125-3.125z"/>
 </g>
<text x="0.0" y="117.5" font-size="5.0" font-weight="bold" font-family="Arbeit Regular, Helvetica, Arial-Unicode, Arial, Sans-serif" fill="#000000">Created by Riyan Resdian</text><text x="0.0" y="122.5" font-size="5.0" font-weight="bold" font-family="Arbeit Regular, Helvetica, Arial-Unicode, Arial, Sans-serif" fill="#000000">from Noun Project</text></svg>