<svg xmlns:x="http://ns.adobe.com/Extensibility/1.0/" xmlns:i="http://ns.adobe.com/AdobeIllustrator/10.0/" xmlns:graph="http://ns.adobe.com/Graphs/1.0/" xmlns="http://www.w3.org/2000/svg" xmlns:xlink="http://www.w3.org/1999/xlink" xmlns:a="http://ns.adobe.com/AdobeSVGViewerExtensions/3.0/" version="1.1" x="0px" y="0px" viewBox="0 0 100 125" enable-background="new 0 0 100 100" xml:space="preserve"><g><g><path d="M25.3,83.7c0.1,0,0.2,0,0.3,0c2.3-0.2,4.1-2.2,3.9-4.5c-0.2-2.3-2.3-4-4.5-3.9c-1.1,0.1-2.1,0.6-2.9,1.5    c-0.7,0.9-1.1,1.9-1,3.1C21.3,81.9,23.2,83.7,25.3,83.7z M24.4,78.6c0.2-0.2,0.5-0.4,0.8-0.4c0,0,0.1,0,0.1,0    c0.6,0,1.2,0.5,1.2,1.1c0.1,0.7-0.4,1.3-1.1,1.3l-0.1,0c-0.6,0-1.2-0.5-1.2-1.1C24.1,79.2,24.2,78.9,24.4,78.6z"/><path d="M9.3,26.9l6.6,8.7c0.2,0.3,0.5,0.5,0.8,0.5l0,0l3.8,0.9l15.8,15.2L14.9,77.4c-1.1,1.3-1.7,3-1.5,4.7    c0.1,1.7,0.9,3.3,2.3,4.4l4.3,3.6c1.2,1,2.7,1.6,4.2,1.6c1.8,0,3.7-0.8,4.9-2.3l17.9-21l22.2,21.4c1.3,1.2,2.9,1.8,4.5,1.8    c1.7,0,3.4-0.7,4.7-2l2.7-2.8c1.2-1.2,1.8-2.9,1.8-4.6c0-1.7-0.7-3.4-2-4.6L58,55.6l2.5-2.9c1.7,1,3.7,1.6,5.9,1.6    c5.7,0,12.5-3.4,17.8-9.6c5.1-6,7.6-13.2,6.7-19c0.1-0.5,0-1.1-0.5-1.5L86,20.4c-0.6-0.5-1.6-0.5-2.1,0.2c0,0,0,0,0,0l-9.1,10.7    c-0.3,0.3-0.6,0.5-1,0.5c-0.4,0-0.8-0.1-1.1-0.4l-7.3-6.2c-0.6-0.5-0.7-1.5-0.2-2.1l9.1-10.7c0.5-0.6,0.5-1.6-0.2-2.1l-4.4-3.7    c-0.5-0.4-1.2-0.5-1.7-0.2c-5.9,0-12.5,3.7-17.6,9.6c-3.7,4.3-6.1,9.3-6.7,14c-0.6,4.3,0.3,8.1,2.5,10.7l-4.5,5.3L26.4,31l-1-3.5    c-0.1-0.4-0.3-0.8-0.6-1l-8.9-6.3c-0.6-0.4-1.4-0.3-1.9,0.2l0,0L9.4,25l0,0C9,25.5,8.9,26.3,9.3,26.9z M78.8,79.9    c0.7,0.6,1,1.5,1.1,2.5c0,0.9-0.3,1.8-1,2.5l-2.7,2.8c-1.3,1.4-3.6,1.4-5,0.1L48.9,66.2l7.1-8.3L78.8,79.9z M49.4,41.5    c0.5-0.6,0.5-1.6-0.2-2.1c-2.2-1.9-3.1-5.1-2.6-9c0.6-4.2,2.7-8.6,6-12.5c4.6-5.3,10.7-8.7,15.7-8.6l2.6,2.2l-8.1,9.5    c-1.6,1.9-1.4,4.7,0.5,6.3l7.3,6.2c0.8,0.7,1.8,1.1,2.9,1.1c0.1,0,0.2,0,0.4,0c1.2-0.1,2.3-0.6,3.1-1.6l8.1-9.5l2.6,2.2    c0.9,4.9-1.4,11.5-6,16.8c-6.7,7.8-16,10.8-20.7,6.8c-0.6-0.5-1.6-0.5-2.1,0.2c-0.1,0.1-0.1,0.2-0.2,0.2L26.7,87.5    c-1.3,1.5-3.5,1.6-4.9,0.4l-4.3-3.6c-0.7-0.6-1.1-1.5-1.2-2.4c-0.1-0.9,0.2-1.8,0.8-2.5L49.4,41.5z M25.1,34l14.7,14.2L38.3,50    L23.4,35.7L25.1,34z M15.1,23.4l7.4,5.2l0.8,2.8l-2.5,2.6L18,33.4l-5.5-7.3L15.1,23.4z"/></g></g><text x="0" y="115" fill="#000000" font-size="5px" font-weight="bold" font-family="'Helvetica Neue', Helvetica, Arial-Unicode, Arial, Sans-serif">Created by wira wianda</text><text x="0" y="120" fill="#000000" font-size="5px" font-weight="bold" font-family="'Helvetica Neue', Helvetica, Arial-Unicode, Arial, Sans-serif">from the Noun Project</text></svg>