<svg xmlns="http://www.w3.org/2000/svg" version="1.1" viewBox="-5.0 -10.0 110.0 135.0">
 <path d="m65.145 78.973h-30.113c-0.53906 0-0.97656-0.4375-0.97656-0.97656v-33.984c0-0.53906 0.4375-0.97656 0.97656-0.97656h30.113c0.53906 0 0.97656 0.4375 0.97656 0.97656v33.984c0 0.53906-0.4375 0.97656-0.97656 0.97656zm-29.133-1.9531h28.156v-32.031h-28.16z"/>
 <path d="m60.742 44.812h-21.309c-0.53906 0-0.97656-0.4375-0.97656-0.97656v-6.5156c0-0.53906 0.4375-0.97656 0.97656-0.97656h21.309c0.53906 0 0.97656 0.4375 0.97656 0.97656v6.5156c0 0.53906-0.4375 0.97656-0.97656 0.97656zm-20.328-1.9531h19.352v-4.5625h-19.355z"/>
 <path d="m60.602 38.473h-0.019531l-10.406-0.19531-10.406 0.19531c-0.22266 0.003906-0.4375-0.066406-0.61328-0.19922-0.14844-0.11328-3.582-2.7891-3.1211-7.0547 0.48047-4.4297 4.9531-8.6797 13.301-12.629 0.21484-0.23828 0.51953-0.375 0.83984-0.375 0.32031 0 0.625 0.13672 0.83984 0.375 8.3477 3.9531 12.824 8.1992 13.301 12.629 0.46094 4.2656-2.9766 6.9414-3.1211 7.0547-0.17187 0.12891-0.37891 0.19922-0.59375 0.19922zm-10.426-2.1484h0.019531l10.051 0.19141c0.65625-0.60938 2.418-2.5078 2.125-5.1055-0.28516-2.5547-2.6406-6.5352-12.195-11.059-9.5547 4.5234-11.91 8.5039-12.195 11.059-0.28906 2.5977 1.4688 4.4961 2.125 5.1055l10.051-0.19141h0.019531z"/>
 <path d="m56.602 78.973h-13.027c-0.53906 0-0.97656-0.4375-0.97656-0.97656v-15.316c-0.003906-1.9883 0.78516-3.8945 2.1914-5.3008s3.3125-2.1953 5.2969-2.1953c1.9883 0 3.8945 0.78906 5.3008 2.1953s2.1953 3.3125 2.1914 5.3008v15.32-0.003906c0 0.53906-0.4375 0.97656-0.97656 0.97656zm-12.055-1.9531h11.078v-14.34c0.003906-1.4727-0.58203-2.8789-1.6211-3.9219-1.0391-1.0391-2.4453-1.6211-3.918-1.6211-1.4688 0-2.875 0.58203-3.9141 1.6211-1.0391 1.043-1.625 2.4492-1.6211 3.9219z"/>
 <path d="m50.078 20.203c-0.54297 0-0.97656-0.4375-0.97656-0.97656v-3.2109c0-0.53906 0.43359-0.97656 0.97656-0.97656 0.53906 0 0.97656 0.4375 0.97656 0.97656v3.2109c0 0.53906-0.4375 0.97656-0.97656 0.97656z"/>
 <path d="m69.793 37.594c-0.53906 0-0.97656-0.4375-0.97656-0.97656v-2.8164c0-0.53906 0.4375-0.97656 0.97656-0.97656 0.53906 0 0.97656 0.4375 0.97656 0.97656v2.8164c0 0.53906-0.4375 0.97656-0.97656 0.97656z"/>
 <path d="m78.527 78.973h-13.383c-0.53906 0-0.97656-0.4375-0.97656-0.97656v-23.945c0-0.53906 0.4375-0.97656 0.97656-0.97656h13.383c0.53906 0 0.97656 0.4375 0.97656 0.97656v23.945c0 0.53906-0.4375 0.97656-0.97656 0.97656zm-12.406-1.9531h11.43v-21.992h-11.43z"/>
 <path d="m74.125 54.852h-8.9805c-0.53906 0-0.97656-0.4375-0.97656-0.97656v-10.039c0-0.53906 0.4375-0.97656 0.97656-0.97656h8.9805c0.53906 0 0.97656 0.4375 0.97656 0.97656v10.039c0 0.53906-0.4375 0.97656-0.97656 0.97656zm-8.0039-1.9531h7.0273v-8.0859h-7.0273z"/>
 <path d="m73.953 44.812h-0.019531l-4.1016-0.078125-4.1016 0.078125c-0.21875 0.003906-0.43359-0.066406-0.60938-0.19922-0.625-0.47656-1.6367-1.7148-1.4609-3.3203 0.21094-1.9531 2.0625-3.7734 5.5039-5.418l-0.003906-0.003906c0.35938-0.27344 0.85156-0.30469 1.2383-0.074219 0.039062 0.023437 0.074218 0.046875 0.10547 0.074219 3.4414 1.6445 5.293 3.4688 5.5039 5.418 0.17188 1.6055-0.83594 2.8438-1.4609 3.3203v0.003906c-0.17188 0.12891-0.37891 0.19922-0.59375 0.19922zm-4.1211-2.0312h0.019531l3.7227 0.070312c0.34766-0.36328 0.52734-0.85937 0.48828-1.3633-0.082031-0.6875-0.74609-2.0703-4.2305-3.7695-3.5 1.707-4.1602 3.0977-4.2344 3.7852h0.003906c-0.035156 0.5 0.14453 0.98828 0.49219 1.3477l3.7227-0.070312h0.015625z"/>
 <path d="m73.949 64.359h-4.2266c-0.53906 0-0.97656-0.4375-0.97656-0.97656v-3.168c0-1.707 1.3828-3.0898 3.0898-3.0898 1.7031 0 3.0859 1.3828 3.0898 3.0898v3.168c0 0.53906-0.4375 0.97656-0.97656 0.97656zm-3.25-1.9531h2.2734v-2.1914c-0.003906-0.62891-0.51172-1.1367-1.1367-1.1367-0.62891 0-1.1367 0.50781-1.1367 1.1367z"/>
 <path d="m73.949 73.867h-4.2266c-0.53906 0-0.97656-0.4375-0.97656-0.97656v-3.168c-0.003906-0.82031 0.32422-1.6094 0.90234-2.1875 0.57812-0.57812 1.3672-0.90625 2.1875-0.90625 0.81641 0 1.6055 0.32812 2.1836 0.90625s0.90625 1.3672 0.90625 2.1875v3.168c0 0.53906-0.4375 0.97656-0.97656 0.97656zm-3.25-1.9531h2.2734v-2.1914c0-0.30469-0.12109-0.59375-0.33594-0.80469-0.21094-0.21484-0.5-0.33594-0.80078-0.33594-0.30469 0-0.59375 0.12109-0.80469 0.33594-0.21484 0.21094-0.33203 0.5-0.33203 0.80469z"/>
 <path d="m89.301 78.973h-5.2812c-0.53906 0-0.97656-0.4375-0.97656-0.97656v-52.121c0-0.53906 0.4375-0.97656 0.97656-0.97656h5.2812c0.54297 0 0.97656 0.4375 0.97656 0.97656v52.121c0 0.53906-0.43359 0.97656-0.97656 0.97656zm-4.3047-1.9531h3.3281v-50.168h-3.3281z"/>
 <path d="m89.301 27.027h-5.2812c-0.53906 0-0.97656-0.43359-0.97656-0.97656v-1.4102 0.003906c0-2 1.6211-3.6172 3.6172-3.6172 2 0 3.6172 1.6172 3.6172 3.6172v1.4102-0.003907c0 0.54297-0.43359 0.97656-0.97656 0.97656zm-4.3047-1.9531h3.3281v-0.43359 0.003906c0-0.92188-0.74219-1.6641-1.6641-1.6641-0.91797 0-1.6641 0.74219-1.6641 1.6641z"/>
 <path d="m86.66 22.98c-0.53906 0-0.97656-0.4375-0.97656-0.97656v-2.9961c0-0.53906 0.4375-0.97656 0.97656-0.97656 0.53906 0 0.97656 0.4375 0.97656 0.97656v2.9961c0 0.53906-0.4375 0.97656-0.97656 0.97656z"/>
 <path d="m91.414 35.305h-9.5078c-0.53906 0-0.97656-0.4375-0.97656-0.97656s0.4375-0.97656 0.97656-0.97656h9.5078c0.53906 0 0.97656 0.4375 0.97656 0.97656s-0.4375 0.97656-0.97656 0.97656z"/>
 <path d="m91.414 48.512h-9.5078c-0.53906 0-0.97656-0.4375-0.97656-0.97656 0-0.53906 0.4375-0.97656 0.97656-0.97656h9.5078c0.53906 0 0.97656 0.4375 0.97656 0.97656 0 0.53906-0.4375 0.97656-0.97656 0.97656z"/>
 <path d="m30.207 37.594c-0.53906 0-0.97656-0.4375-0.97656-0.97656v-2.8164c0-0.53906 0.4375-0.97656 0.97656-0.97656 0.53906 0 0.97656 0.4375 0.97656 0.97656v2.8164c0 0.53906-0.4375 0.97656-0.97656 0.97656z"/>
 <path d="m34.855 78.973h-13.383c-0.53906 0-0.97656-0.4375-0.97656-0.97656v-23.945c0-0.53906 0.4375-0.97656 0.97656-0.97656h13.383c0.53906 0 0.97656 0.4375 0.97656 0.97656v23.945c0 0.53906-0.4375 0.97656-0.97656 0.97656zm-12.406-1.9531h11.43v-21.992h-11.43z"/>
 <path d="m34.855 54.852h-8.9805c-0.53906 0-0.97656-0.4375-0.97656-0.97656v-10.039c0-0.53906 0.4375-0.97656 0.97656-0.97656h8.9805c0.53906 0 0.97656 0.4375 0.97656 0.97656v10.039c0 0.53906-0.4375 0.97656-0.97656 0.97656zm-8.0039-1.9531h7.0273v-8.0859h-7.0273z"/>
 <path d="m26.047 44.812c-0.21484 0-0.42188-0.070312-0.59375-0.19922-0.625-0.47656-1.6367-1.7148-1.4609-3.3203 0.21094-1.9531 2.0625-3.7734 5.5039-5.418v-0.003906c0.35938-0.27734 0.84766-0.30469 1.2383-0.074219 0.035156 0.023437 0.070313 0.046875 0.10547 0.074219 3.4414 1.6445 5.293 3.4688 5.5039 5.418 0.17188 1.6055-0.83594 2.8438-1.4609 3.3203l-0.003906 0.003906c-0.17578 0.13281-0.39062 0.20312-0.60938 0.19922l-4.1016-0.078125-4.1016 0.078125h-0.019531zm4.1211-2.0312h0.019531l3.7227 0.070312h-0.003906c0.35156-0.36328 0.53125-0.85937 0.49219-1.3633-0.082032-0.6875-0.74609-2.0703-4.2305-3.7695-3.4844 1.6992-4.1484 3.082-4.2305 3.7695-0.039062 0.50391 0.14062 1 0.49219 1.3633l3.7188-0.070312h0.019531z"/>
 <path d="m30.277 64.359h-4.2266c-0.53906 0-0.97656-0.4375-0.97656-0.97656v-3.168c0.003906-1.707 1.3867-3.0898 3.0898-3.0898 1.707 0 3.0898 1.3828 3.0898 3.0898v3.168c0 0.53906-0.4375 0.97656-0.97656 0.97656zm-3.25-1.9531h2.2734v-2.1914c0-0.62891-0.50781-1.1367-1.1367-1.1367-0.625 0-1.1328 0.50781-1.1367 1.1367z"/>
 <path d="m30.277 73.867h-4.2266c-0.53906 0-0.97656-0.4375-0.97656-0.97656v-3.168c0-1.707 1.3867-3.0898 3.0898-3.0898 1.707 0 3.0898 1.3828 3.0898 3.0898v3.168c0 0.53906-0.4375 0.97656-0.97656 0.97656zm-3.25-1.9531h2.2734v-2.1914c0-0.30469-0.11719-0.59375-0.33203-0.80469-0.21094-0.21484-0.5-0.33594-0.80469-0.33594-0.30078 0-0.58984 0.12109-0.80078 0.33594-0.21484 0.21094-0.33594 0.5-0.33594 0.80469z"/>
 <path d="m15.98 78.973h-5.2812c-0.54297 0-0.97656-0.4375-0.97656-0.97656v-52.121c0-0.53906 0.43359-0.97656 0.97656-0.97656h5.2812c0.53906 0 0.97656 0.4375 0.97656 0.97656v52.121c0 0.53906-0.4375 0.97656-0.97656 0.97656zm-4.3047-1.9531h3.3281v-50.168h-3.3281z"/>
 <path d="m15.98 27.027h-5.2812c-0.54297 0-0.97656-0.43359-0.97656-0.97656v-1.4102 0.003906c0-2 1.6172-3.6172 3.6172-3.6172 1.9961 0 3.6172 1.6172 3.6172 3.6172v1.4102-0.003907c0 0.54297-0.4375 0.97656-0.97656 0.97656zm-4.3047-1.9531h3.3281v-0.43359 0.003906c0-0.92188-0.74609-1.6641-1.6641-1.6641-0.92188 0-1.6641 0.74219-1.6641 1.6641z"/>
 <path d="m13.34 22.98c-0.53906 0-0.97656-0.4375-0.97656-0.97656v-2.9961c0-0.53906 0.4375-0.97656 0.97656-0.97656 0.53906 0 0.97656 0.4375 0.97656 0.97656v2.9961c0 0.53906-0.4375 0.97656-0.97656 0.97656z"/>
 <path d="m18.094 35.305h-9.5078c-0.53906 0-0.97656-0.4375-0.97656-0.97656s0.4375-0.97656 0.97656-0.97656h9.5078c0.53906 0 0.97656 0.4375 0.97656 0.97656s-0.4375 0.97656-0.97656 0.97656z"/>
 <path d="m18.094 48.512h-9.5078c-0.53906 0-0.97656-0.4375-0.97656-0.97656 0-0.53906 0.4375-0.97656 0.97656-0.97656h9.5078c0.53906 0 0.97656 0.4375 0.97656 0.97656 0 0.53906-0.4375 0.97656-0.97656 0.97656z"/>
 <path d="m89.797 84.961h-79.594c-1.0039 0-1.9727-0.39844-2.6836-1.1094-0.71094-0.71094-1.1133-1.6797-1.1133-2.6836 0-1.0078 0.40234-1.9727 1.1133-2.6836 0.71094-0.71094 1.6797-1.1133 2.6836-1.1094h79.594c1.0039-0.003906 1.9727 0.39844 2.6836 1.1094 0.71094 0.71094 1.1133 1.6758 1.1133 2.6836 0 1.0039-0.40234 1.9727-1.1133 2.6836-0.71094 0.71094-1.6797 1.1094-2.6836 1.1094zm-79.594-5.6328c-0.48828-0.003906-0.95703 0.19141-1.3008 0.53516-0.34766 0.34766-0.53906 0.81641-0.53906 1.3047s0.19141 0.95703 0.53906 1.3008c0.34375 0.34766 0.8125 0.53906 1.3008 0.53906h79.594c0.48828 0 0.95703-0.19141 1.3008-0.53906 0.34766-0.34375 0.53906-0.8125 0.53906-1.3008s-0.19141-0.95703-0.53906-1.3047c-0.34375-0.34375-0.8125-0.53906-1.3008-0.53516z"/>
<text x="0.0" y="117.5" font-size="5.0" font-weight="bold" font-family="Arbeit Regular, Helvetica, Arial-Unicode, Arial, Sans-serif" fill="#000000">Created by Sinaelgi Aziz</text><text x="0.0" y="122.5" font-size="5.0" font-weight="bold" font-family="Arbeit Regular, Helvetica, Arial-Unicode, Arial, Sans-serif" fill="#000000">from Noun Project</text></svg>